<svg width="23" height="20" viewBox="0 0 23 20" fill="none" xmlns="http://www.w3.org/2000/svg">
<path d="M15.5034 3.03418C11.7395 3.03418 8.64648 5.86177 8.64648 9.37901V19.31C8.64648 19.6894 8.98188 19.9997 9.3918 19.9997H13.2674C13.6774 19.9997 14.0128 19.6894 14.0128 19.31V9.65487C14.0128 8.89625 14.6835 8.27556 15.5034 8.27556C16.3232 8.27556 16.994 8.89625 16.994 9.65487V19.31C16.994 19.6894 17.3294 19.9997 17.7393 19.9997H21.615C22.0249 19.9997 22.3603 19.6894 22.3603 19.31V9.37901C22.3603 5.89625 19.3045 3.03418 15.5034 3.03418Z" fill="#505F79"/>
<path d="M3.4664 0C1.97577 0 0.783264 1.10345 0.783264 2.48276C0.783264 3.86207 1.97577 4.96552 3.4664 4.96552C4.95703 4.96552 6.14954 3.86207 6.14954 2.48276C6.14954 1.10345 4.95703 0 3.4664 0Z" fill="#505F79"/>
<path d="M5.40422 6.27539H1.52858C1.11866 6.27539 0.783264 6.58574 0.783264 6.96505V19.3099C0.783264 19.6892 1.11866 19.9995 1.52858 19.9995H5.40422C5.81414 19.9995 6.14954 19.6892 6.14954 19.3099V6.96505C6.14954 6.58574 5.81414 6.27539 5.40422 6.27539Z" fill="#505F79"/>
</svg>
