<svg width="1440" height="352" viewBox="0 0 1440 352" fill="none" xmlns="http://www.w3.org/2000/svg">
<path d="M1366.87 211.843L1466.66 245.778H1323.48L1305.12 243.775L1296.22 238.212L1326.6 211.843H1366.87Z" fill="#172B4D"/>
<path d="M1353.74 149.536V144.195C1353.74 144.195 1342.06 121.052 1340.39 120.83C1338.72 120.607 1203 64.0859 1203 64.0859L1254.73 164.778L1275.2 186.586L1353.74 149.536Z" fill="white" stroke="#36B37E" stroke-width="1.35786" stroke-miterlimit="10"/>
<mask id="mask0_103050_58" style="mask-type: alpha;" maskUnits="userSpaceOnUse" x="1201" y="63" width="154" height="126">
<path d="M1354.15 150.14V144.799C1354.15 144.799 1342.47 121.657 1340.8 121.434C1339.14 121.212 1203.41 64.6904 1203.41 64.6904L1255.14 165.383L1275.61 187.19L1354.15 150.14Z" fill="white" stroke="#36B37E" stroke-width="1.35786" stroke-miterlimit="10"/>
</mask>
<g mask="url(#mask0_103050_58)">
<path d="M1297.11 123.389L1280.09 123.945L1272.31 110.148L1255.95 110.927L1263.63 124.39L1247.39 124.946L1254.95 138.632L1271.31 138.298L1288.22 137.853L1296.45 152.094L1313.91 151.983L1322.59 166.67H1340.95L1331.94 151.761L1323.15 137.074L1305.46 137.519L1297.11 123.389Z" fill="#C5E9DA"/>
<path d="M1288.99 109.48L1280.98 95.9062L1264.52 96.7964L1272.31 110.148L1288.99 109.48Z" fill="#36B37E"/>
<path d="M1314.58 122.721L1306.13 108.702L1288.99 109.481L1297.11 123.389L1314.58 122.721Z" fill="#36B37E"/>
<path d="M1323.7 107.922L1315.14 94.0146L1297.89 94.9047L1306.13 108.701L1323.7 107.922Z" fill="#36B37E"/>
<path d="M1332.49 122.164L1314.58 122.72L1323.15 137.073L1341.39 136.739L1360.08 136.294L1350.85 121.608L1341.84 107.144L1323.7 107.922L1332.49 122.164Z" fill="#36B37E"/>
<path d="M1240.04 111.595L1255.95 110.927L1248.5 97.5757L1264.52 96.7969L1256.95 83.5566L1241.16 84.558L1225.69 85.5594L1232.81 98.4658L1217.46 99.2446L1202.55 100.023L1209.34 112.93L1224.47 112.262L1231.59 125.503L1247.39 124.946L1240.04 111.595Z" fill="#172B4D"/>
<path d="M1216.24 125.947L1223.25 139.299L1238.93 138.965L1231.59 125.502L1216.24 125.947Z" fill="#36B37E"/>
<path d="M1203.89 73.9876L1210.56 86.5603L1225.69 85.5589L1218.69 72.875L1203.89 73.9876Z" fill="#36B37E"/>
<path d="M1280.98 95.9065L1297.89 94.9051L1289.77 81.4424L1281.87 68.2021L1265.52 69.426L1249.5 70.6499L1256.95 83.5564L1273.2 82.555L1280.98 95.9065Z" fill="#36B37E"/>
<path d="M1324.26 79.2168L1306.79 80.3294L1315.14 94.0147L1332.94 93.1246L1324.26 79.2168Z" fill="#36B37E"/>
<path d="M1360.3 106.366L1351.18 92.124L1332.94 93.1254L1341.84 107.144L1360.3 106.366Z" fill="#36B37E"/>
<path d="M1238.93 138.965L1246.39 152.761L1262.63 152.539L1254.95 138.631L1238.93 138.965Z" fill="#36B37E"/>
</g>
<path d="M1323.48 145.975L1261.18 159.326L1259.62 163.443L1273.53 182.469L1323.48 145.975Z" fill="#172B4D"/>
<path d="M1359.08 150.203L1420.27 1L1380.88 161.552L1376.66 162.998L1359.08 150.203Z" fill="white" stroke="#36B37E" stroke-width="1.35786" stroke-miterlimit="10"/>
<path d="M1381.22 160.106L1362.97 140.635L1359.08 150.203L1376.66 162.999L1380.88 161.552L1381.22 160.106Z" fill="#36B37E"/>
<path d="M1376.66 162.999L1364.09 152.317L1344.62 137.52L1295.33 157.324L1293.11 169.229L1305.12 186.252L1376.66 162.999Z" fill="white" stroke="#36B37E" stroke-width="1.35786" stroke-miterlimit="10"/>
<path d="M1351.4 171.12L1387.78 159.326L1366.87 211.842L1336.83 213.734L1351.4 171.12Z" fill="white" stroke="#36B37E" stroke-width="1.35786" stroke-miterlimit="10"/>
<path d="M1312.36 183.693L1305.12 186.252L1301.79 233.761L1305.12 243.775L1336.83 213.734L1351.4 171.12L1312.36 183.693Z" fill="white" stroke="#36B37E" stroke-width="1.35786" stroke-miterlimit="10"/>
<path d="M1409.7 152.317L1472.55 186.252L1312.36 183.693L1409.7 152.317Z" fill="#C5E9DA" stroke="#36B37E" stroke-width="1.35786" stroke-miterlimit="10"/>
<path d="M1305.12 186.252V178.464L1254.73 109.147L1248.06 119.717L1296.23 238.212L1301.79 233.761L1305.12 186.252Z" fill="white" stroke="#36B37E" stroke-width="1.35786" stroke-miterlimit="10"/>
<path d="M1254.73 109.147L1248.05 119.717L1225.58 140.634L1243.38 104.696L1254.73 109.147Z" fill="white" stroke="#36B37E" stroke-width="1.35786" stroke-miterlimit="10"/>
<path d="M1374.88 191.593L1312.36 183.693L1377.66 184.806L1374.88 191.593Z" fill="#172B4D"/>
<path d="M1319.14 181.579L1297.34 163.443L1296.45 166.559L1305.12 178.464V186.252L1319.14 181.579Z" fill="#172B4D"/>
<path d="M1291.55 226.863L1286.44 233.205L1279.76 226.863L1244.94 122.721L1248.05 119.717L1291.55 226.863Z" fill="#C5E9DA" stroke="#36B37E" stroke-width="1.35786" stroke-miterlimit="10"/>
<path d="M-3.57568 351.819L224.862 348.866L136.341 324.513L146.318 303.407L202.935 295.638L188.433 292.275L149.451 290.535L-3.57568 351.819Z" fill="#172B4D"/>
<path d="M122.766 244.034L115.805 244.15L57.9126 222.58L123.347 259.689L134.02 250.876L122.766 244.034Z" fill="#36B37E"/>
<path d="M122.767 244.033L235.42 223.392L179.151 278.011L122.767 244.033Z" fill="#172B4D"/>
<path d="M57.9126 222.58L170.334 286.477L145.042 291.115L83.0884 295.638L57.9126 222.58Z" fill="white" stroke="#36B37E" stroke-width="1.43685" stroke-miterlimit="10" stroke-linejoin="round"/>
<path d="M170.333 286.477L235.419 223.392L188.432 292.275L170.333 286.477Z" fill="white" stroke="#36B37E" stroke-width="1.43685" stroke-miterlimit="10" stroke-linejoin="round"/>
<path d="M123.347 259.689L152.467 235.685L155.484 238.12L146.318 272.793L123.347 259.689Z" fill="white" stroke="#36B37E" stroke-width="1.43685" stroke-miterlimit="10" stroke-linejoin="round"/>
<path d="M155.483 238.119L181.819 275.46L170.334 286.477L146.318 272.793L155.483 238.119Z" fill="white" stroke="#36B37E" stroke-width="1.43685" stroke-miterlimit="10" stroke-linejoin="round"/>
<path d="M188.433 292.275L145.042 291.115L170.334 286.477L188.433 292.275Z" fill="white" stroke="#36B37E" stroke-width="1.43685" stroke-miterlimit="10" stroke-linejoin="round"/>
<path d="M38.5379 274.416L29.2565 276.039L-52.4199 259.572L42.7146 295.058L55.1284 281.026L38.5379 274.416Z" fill="white" stroke="#36B37E" stroke-width="1.43685" stroke-miterlimit="10" stroke-linejoin="round"/>
<path d="M38.5381 274.416L184.256 223.392L120.795 307.466L38.5381 274.416Z" fill="#C5E9DA" stroke="#36B37E" stroke-width="1.43685" stroke-miterlimit="10"/>
<path d="M-52.4199 259.572L111.049 320.454L78.216 332.05L-3.46047 350.953L-52.4199 259.572Z" fill="white" stroke="#36B37E" stroke-width="1.43685" stroke-miterlimit="10" stroke-linejoin="round"/>
<path d="M111.049 320.454L184.256 223.392L136.341 324.513L111.049 320.454Z" fill="white" stroke="#36B37E" stroke-width="1.43685" stroke-miterlimit="10" stroke-linejoin="round"/>
<path d="M42.7144 295.058L76.4755 257.138L81.0002 259.573L76.1275 307.467L42.7144 295.058Z" fill="#36B37E"/>
<path d="M81.0002 259.572L123.811 303.523L111.049 320.454L76.1274 307.466L81.0002 259.572Z" fill="white" stroke="#36B37E" stroke-width="1.43685" stroke-miterlimit="10" stroke-linejoin="round"/>
<path d="M136.341 324.513L78.2158 332.051L111.049 320.454L136.341 324.513Z" fill="white" stroke="#36B37E" stroke-width="1.43685" stroke-miterlimit="10" stroke-linejoin="round"/>
<mask id="mask1_103050_58" style="mask-type: alpha;" maskUnits="userSpaceOnUse" x="-54" y="259" width="166" height="92">
<path d="M-52.6226 260.005L110.742 320.211L78.3906 331.354L-3.28582 350.256L-52.6226 260.005Z" fill="white" stroke="#36B37E" stroke-width="1.43685" stroke-miterlimit="10" stroke-linejoin="round"/>
</mask>
<g mask="url(#mask1_103050_58)">
<path d="M45.731 322.889L27.9803 323.469L19.743 309.205L2.68843 309.901L10.6937 324.049L-6.12891 324.512L1.64427 338.776L18.8149 338.428L36.3335 337.964L44.9189 352.924L63.2496 352.692L72.299 367.999H91.3259L82.0445 352.46L72.8791 337.269L54.3163 337.617L45.731 322.889Z" fill="#C5E9DA"/>
<path d="M37.1459 308.394L28.7927 294.246L11.6221 295.174L19.7433 309.206L37.1459 308.394Z" fill="#C5E9DA"/>
<path d="M63.8301 322.31L55.1287 307.582L37.146 308.394L45.7313 322.889L63.8301 322.31Z" fill="#36B37E"/>
<path d="M73.4594 306.886L64.526 292.274L46.4272 293.318L55.1286 307.582L73.4594 306.886Z" fill="#172B4D"/>
<path d="M82.5089 321.614L63.8301 322.309L72.8795 337.269L91.7903 336.805L111.281 336.341L101.652 321.034L92.2544 306.074L73.4595 306.886L82.5089 321.614Z" fill="#36B37E"/>
<path d="M-13.902 310.597L2.68848 309.901L-5.08471 296.102L11.6218 295.174L3.73264 281.374L-12.7419 282.418L-28.8683 283.461L-21.4432 296.913L-37.3376 297.841L-53 298.653L-45.9229 311.989L-30.0285 311.293L-22.6034 325.093L-6.12886 324.513L-13.902 310.597Z" fill="#36B37E"/>
<path d="M28.7925 294.246L46.4272 293.318L37.9579 279.286L29.7206 265.486L12.666 266.762L-4.04053 267.922L3.73266 281.374L20.6712 280.33L28.7925 294.246Z" fill="#36B37E"/>
<path d="M74.0395 276.967L55.8247 278.126L64.526 292.274L83.0889 291.346L74.0395 276.967Z" fill="#36B37E"/>
<path d="M111.629 305.146L102 290.303L83.0889 291.346L92.2543 306.074L111.629 305.146Z" fill="#36B37E"/>
<path d="M-15.062 339.124L-7.28883 353.504L9.64976 353.272L1.64454 338.776L-15.062 339.124Z" fill="#36B37E"/>
</g>
</svg>
